<?xml version="1.0" encoding="utf-8"?>
<!-- Generator: Adobe Illustrator 28.3.0, SVG Export Plug-In . SVG Version: 6.00 Build 0)  -->
<svg version="1.1" id="Capa_1" xmlns="http://www.w3.org/2000/svg" xmlns:xlink="http://www.w3.org/1999/xlink" x="0px" y="0px"
	 viewBox="0 0 512 512" style="enable-background:new 0 0 512 512;" xml:space="preserve">
<style type="text/css">
	.st0{fill:#FD4A4A;}
	.st1{fill:#DADAEA;}
	.st2{fill:#C5C5D8;}
	.st3{fill:#2A2ABC;}
	.st4{fill:#2F26AA;}
</style>
<g>
	<path class="st0" d="M366.6,310.3l-25,8l0.5,1.7l-73.6,34.9l-12.5,4L294.9,480l50.2-40.1l64.1,3.5L366.6,310.3z"/>
	<path class="st0" d="M243.4,354.8l-73.6-34.9l0.5-1.7l-25-8l-42.6,133.2l64.1-3.5l50.2,40.1l38.8-121.2L243.4,354.8z"/>
	<path class="st1" d="M407.3,199c0,83.5-67.7,151.3-151.3,151.3S104.7,282.6,104.7,199c0-83.5,67.7-151.3,151.3-151.3
		S407.3,115.5,407.3,199z"/>
	<path class="st2" d="M407.3,199c0,83.5-67.7,151.3-151.3,151.3V47.8C339.5,47.8,407.3,115.5,407.3,199z"/>
	<path class="st3" d="M256,32c-92.1,0-167,74.9-167,167s74.9,167,167,167s167-74.9,167-167S348.1,32,256,32L256,32z M256,334.5
		c-74.7,0-135.5-60.8-135.5-135.5c0-74.7,60.8-135.5,135.5-135.5S391.5,124.3,391.5,199C391.5,273.7,330.7,334.5,256,334.5z"/>
	<path class="st4" d="M304.8,217.5l11.4,66.6l-0.5,0.3L256,253l-59.8,31.4l-0.5-0.3l11.4-66.6l-48.4-47.1l0.2-0.6l66.8-9.7
		l29.9-60.6h0.6l29.9,60.6l66.8,9.7l0.2,0.6L304.8,217.5z"/>
	<g>
		<path class="st3" d="M423,199c0,92.1-74.9,167-167,167v-31.5c74.7,0,135.5-60.8,135.5-135.5c0-74.7-60.8-135.5-135.5-135.5V32
			C348.1,32,423,106.9,423,199L423,199z"/>
		<path class="st4" d="M353.2,170.4l-48.4,47.1l11.4,66.6l-0.5,0.3L256,253V99.6h0.3l29.9,60.6l66.8,9.7L353.2,170.4z"/>
	</g>
</g>
</svg>
