<?xml version="1.0" encoding="utf-8"?>
<!-- Generator: Adobe Illustrator 28.3.0, SVG Export Plug-In . SVG Version: 6.00 Build 0)  -->
<svg version="1.1" id="Capa_1" xmlns="http://www.w3.org/2000/svg" xmlns:xlink="http://www.w3.org/1999/xlink" x="0px" y="0px"
	 viewBox="0 0 512 512" style="enable-background:new 0 0 512 512;" xml:space="preserve">
<style type="text/css">
	.st0{fill:#2F26AA;}
	.st1{fill:#FF5A08;}
	.st2{fill:#1B1289;}
	.st3{fill:#FFB74F;}
	.st4{fill:#FF9B00;}
	.st5{fill:#F26E3B;}
	.st6{fill:#FF8048;}
</style>
<g>
	<g>
		<g>
			<path class="st0" d="M105.9,138.6H47.4c-8,0-14.4-6.4-14.4-14.4V65.7c0-8,6.4-14.4,14.4-14.4h58.5c8,0,14.4,6.4,14.4,14.4v58.5
				C120.3,132.2,113.9,138.6,105.9,138.6z"/>
			<path class="st1" d="M105.9,253.8H47.4c-8,0-14.4-6.4-14.4-14.4v-57.6c0-8,6.4-14.4,14.4-14.4h58.5c8,0,14.4,6.4,14.4,14.4v57.6
				C120.3,247.3,113.9,253.8,105.9,253.8z"/>
			<path class="st0" d="M105.9,369H47.4c-8,0-14.4-6.4-14.4-14.4V297c0-8,6.4-14.4,14.4-14.4h58.5c8,0,14.4,6.4,14.4,14.4v57.6
				C120.3,362.5,113.9,369,105.9,369z"/>
			<path class="st0" d="M222.1,253.8h-58.5c-8,0-14.4-6.4-14.4-14.4v-57.6c0-8,6.4-14.4,14.4-14.4h58.5c8,0,14.4,6.4,14.4,14.4v57.6
				C236.5,247.3,230,253.8,222.1,253.8z"/>
			<path class="st0" d="M222.1,369h-58.5c-8,0-14.4-6.4-14.4-14.4V297c0-8,6.4-14.4,14.4-14.4h58.5c8,0,14.4,6.4,14.4,14.4v57.6
				C236.5,362.5,230,369,222.1,369z"/>
			<path class="st1" d="M222.1,138.6h-58.5c-8,0-14.4-6.4-14.4-14.4V65.7c0-8,6.4-14.4,14.4-14.4h58.5c8,0,14.4,6.4,14.4,14.4v58.5
				C236.5,132.2,230,138.6,222.1,138.6z"/>
			<path class="st0" d="M337.3,51.3h-57.6c-8.1,0-14.4,6.3-14.4,14.4v58.5c0,8.1,6.3,14.4,14.4,14.4h57.6c8.1,0,14.4-6.3,14.4-14.4
				V65.7C351.6,57.6,345.3,51.3,337.3,51.3z"/>
		</g>
		<path class="st2" d="M337.3,138.6h-28.8V51.3h28.8c8.1,0,14.4,6.3,14.4,14.4v58.5C351.6,132.3,345.3,138.6,337.3,138.6z"/>
		<g>
			<polygon class="st3" points="323.7,215 317.9,217.5 312.2,220 298.1,188 303.7,185.5 309.5,182.9 			"/>
			<polygon class="st4" points="309.5,182.9 323.7,215 317.9,217.5 303.7,185.5 			"/>
			<g>
				
					<rect x="277.4" y="212.5" transform="matrix(0.362 -0.9322 0.9322 0.362 -33.4974 411.1572)" class="st3" width="12.5" height="35"/>
				
					<rect x="267" y="263.3" transform="matrix(0.9156 -0.4021 0.4021 0.9156 -84.394 137.1414)" class="st3" width="35" height="12.5"/>
				
					<rect x="332.8" y="194.3" transform="matrix(0.3599 -0.933 0.933 0.3599 37.1127 455.2364)" class="st4" width="35" height="12.5"/>
				
					<rect x="361.5" y="221.6" transform="matrix(0.9137 -0.4063 0.4063 0.9137 -59.8751 173.6385)" class="st4" width="35" height="12.5"/>
			</g>
		</g>
	</g>
	<g>
		<path class="st5" d="M376.3,379.5l38.5,81.3l35.7-16.9L412,362.6l67,1.4L331.3,238.4l3.7,193.9L376.3,379.5z"/>
		<path class="st6" d="M331.5,238.6l101.2,213.7l17.7-8.4L412,362.6l67,1.4L331.5,238.6z"/>
	</g>
</g>
</svg>
