<?xml version="1.0" encoding="utf-8"?>
<!-- Generator: Adobe Illustrator 28.3.0, SVG Export Plug-In . SVG Version: 6.00 Build 0)  -->
<svg version="1.1" id="Layer_1" xmlns="http://www.w3.org/2000/svg" xmlns:xlink="http://www.w3.org/1999/xlink" x="0px" y="0px"
	 viewBox="0 0 512 512" style="enable-background:new 0 0 512 512;" xml:space="preserve">
<style type="text/css">
	.st0{fill:#FF5A08;}
	.st1{fill:#FF8048;}
</style>
<g>
	<path class="st0" d="M488.8,201.2c-3.1-9.5-11.5-16.2-21.4-17.1l-135.1-12.3l-53.4-125c-3.9-9.2-12.9-15.1-22.9-15.1
		c-10,0-18.9,5.9-22.9,15.1l-53.4,125L44.6,184.1c-9.9,0.9-18.3,7.6-21.4,17.1c-3.1,9.5-0.2,19.9,7.3,26.4l102.1,89.5l-30.1,132.6
		c-2.2,9.8,1.6,19.8,9.7,25.7c4.3,3.1,9.4,4.7,14.6,4.7c4.4,0,8.8-1.2,12.8-3.5L256,407.1l116.5,69.6c8.5,5.1,19.3,4.7,27.3-1.2
		c8.1-5.9,11.9-16,9.7-25.7l-30.1-132.6l102.1-89.5C489,221.1,491.9,210.7,488.8,201.2L488.8,201.2z"/>
	<path class="st1" d="M256,31.8c-10,0-18.9,5.9-22.9,15.1l-53.4,125L44.6,184.1c-9.9,0.9-18.3,7.6-21.4,17.1
		c-3.1,9.5-0.2,19.9,7.3,26.4l102.1,89.5l-30.1,132.6c-2.2,9.8,1.6,19.8,9.7,25.7c4.3,3.1,9.4,4.7,14.6,4.7c4.4,0,8.8-1.2,12.8-3.5
		L256,407.1V31.8z"/>
</g>
</svg>
